<svg width="17" height="16" viewBox="0 0 17 16" fill="none" xmlns="http://www.w3.org/2000/svg">
<path d="M8.5 16C12.9183 16 16.5 12.4183 16.5 8C16.5 3.58172 12.9183 0 8.5 0C4.08172 0 0.5 3.58172 0.5 8C0.5 12.4183 4.08172 16 8.5 16Z" fill="#627EEA"/>
<path d="M8.49976 2.66663V6.60966L11.8324 8.09889L8.49976 2.66663Z" fill="white" fill-opacity="0.602"/>
<path d="M8.49976 2.66663L5.16663 8.09889L8.49976 6.60966V2.66663Z" fill="white"/>
<path d="M8.49976 10.654V13.3332L11.8347 8.71936L8.49976 10.654Z" fill="white" fill-opacity="0.602"/>
<path d="M8.49976 13.3332V10.6536L5.16663 8.71936L8.49976 13.3332Z" fill="white"/>
<path d="M8.49976 10.0341L11.8324 8.09904L8.49976 6.61072V10.0341Z" fill="white" fill-opacity="0.2"/>
<path d="M5.16663 8.09904L8.49976 10.0341V6.61072L5.16663 8.09904Z" fill="white" fill-opacity="0.602"/>
</svg>
