<svg width="84" height="14" viewBox="0 0 84 14" fill="none" xmlns="http://www.w3.org/2000/svg">
<g clip-path="url(#clip0_9_5383)">
<path d="M14.8249 5.97811C14.8249 10.8592 11.8281 12.4257 10.2389 11.0408C8.94486 9.90567 8.55892 7.49919 6.60649 7.24946C4.13189 6.95432 3.90486 10.2462 2.27027 10.2462C0.363243 10.2462 0 7.49919 0 6.06892C0 4.61594 0.408649 2.6408 2.02054 2.6408C3.90486 2.6408 4.01838 5.47865 6.37946 5.31973C8.71784 5.16081 8.76324 2.20945 10.307 0.960799C11.6465 -0.151634 14.8249 1.02891 14.8249 5.97811Z" fill="#65FB9E"/>
<path d="M21.8627 10.5188V1.05176H22.7708V5.16096H28.3103V1.05176H29.1957V10.5415H28.3103V5.93283H22.7708V10.5415H21.8627V10.5188Z" fill="#FAFAFA"/>
<path d="M31.5567 13.4018L32.7827 10.3597L30.1265 3.98022H31.0573L32.8054 8.29374C32.8962 8.56617 33.0551 8.90671 33.2367 9.33806C33.2594 9.26995 33.2821 9.20184 33.3275 9.13374C33.3502 9.06563 33.373 8.99752 33.4184 8.92941C33.4638 8.8159 33.5319 8.70238 33.5546 8.58887C33.5773 8.47536 33.6227 8.38455 33.6681 8.27103L35.3027 3.95752H36.1881L32.4648 13.3791H31.5567V13.4018Z" fill="#FAFAFA"/>
<path d="M37.0508 13.4018V3.98021H37.8908V4.38885C37.8908 4.47966 37.8908 4.54777 37.8908 4.63858C37.8908 4.72939 37.8908 4.82021 37.8908 4.91102C37.8908 4.95642 37.8908 5.00183 37.8908 5.04723C37.8908 5.09264 37.8908 5.13804 37.8908 5.18345C38.1178 4.7748 38.4129 4.43426 38.8443 4.18453C39.2529 3.9348 39.707 3.79858 40.2292 3.79858C40.8421 3.79858 41.3643 3.9575 41.8183 4.25264C42.2724 4.54777 42.6129 4.95642 42.8627 5.47858C43.1124 6.00075 43.2259 6.59102 43.2259 7.24939C43.2259 7.93048 43.1124 8.52075 42.8627 9.04291C42.6129 9.56507 42.2497 9.97372 41.8183 10.2916C41.3643 10.5867 40.8421 10.7456 40.2746 10.7456C39.7751 10.7456 39.3438 10.6321 38.9124 10.3824C38.5038 10.1553 38.1859 9.7921 37.9362 9.33804C37.9362 9.40615 37.9362 9.47426 37.9362 9.56507C37.9362 9.63318 37.9362 9.70129 37.9362 9.76939C37.9362 9.8148 37.9362 9.88291 37.9362 9.92831C37.9362 9.97372 37.9362 10.0191 37.9362 10.0645V13.4245H37.0508V13.4018ZM40.0929 10.0418C40.547 10.0418 40.9329 9.92831 41.2735 9.67858C41.614 9.42885 41.8638 9.11102 42.0681 8.67966C42.2497 8.24831 42.3405 7.77156 42.3405 7.22669C42.3405 6.68183 42.2497 6.20507 42.0681 5.79642C41.8865 5.38777 41.614 5.04723 41.2735 4.82021C40.9329 4.59318 40.547 4.47967 40.0929 4.47967C39.6616 4.47967 39.2756 4.59318 38.9351 4.82021C38.5946 5.04723 38.3221 5.36507 38.1405 5.79642C37.9589 6.20507 37.8454 6.70453 37.8454 7.24939C37.8454 7.79426 37.9362 8.29372 38.1405 8.70237C38.3221 9.13372 38.5946 9.45156 38.9351 9.70129C39.2756 9.95102 39.6616 10.0418 40.0929 10.0418Z" fill="#FAFAFA"/>
<path d="M47.2443 10.7229C46.6313 10.7229 46.0865 10.5867 45.6097 10.3143C45.133 10.0418 44.7697 9.63318 44.52 9.11101C44.2703 8.58885 44.134 7.9532 44.134 7.22669C44.134 6.56831 44.2703 5.97804 44.5427 5.45588C44.8151 4.93372 45.1784 4.52507 45.6324 4.22993C46.0865 3.9348 46.6086 3.77588 47.1762 3.77588C47.7892 3.77588 48.3113 3.9121 48.7654 4.20723C49.1967 4.47966 49.5373 4.88833 49.7643 5.38779C49.9913 5.90996 50.1048 6.5002 50.1048 7.18128V7.36291H44.974C44.974 7.93047 45.0648 8.40725 45.2692 8.81588C45.4735 9.22453 45.7232 9.51966 46.0638 9.72399C46.4043 9.92831 46.813 10.0418 47.2443 10.0418C47.7665 10.0418 48.1978 9.92831 48.5611 9.67858C48.9016 9.42885 49.1286 9.04291 49.1967 8.54345H50.0367C49.9686 8.9521 49.8324 9.33804 49.5827 9.65588C49.3557 9.97372 49.0378 10.2461 48.6292 10.4278C48.2659 10.6094 47.7892 10.7229 47.2443 10.7229ZM49.1967 6.72723C49.1967 6.04615 49.0151 5.50128 48.6519 5.09264C48.2886 4.68399 47.8119 4.47969 47.1762 4.47969C46.5632 4.47969 46.0638 4.68399 45.6778 5.11534C45.2919 5.54669 45.0648 6.06885 44.9967 6.72723H49.1967Z" fill="#FAFAFA"/>
<path d="M51.3989 10.5186V3.98021H52.2389V4.41156C52.2389 4.47967 52.2389 4.54777 52.2389 4.61588C52.2389 4.68399 52.2389 4.7521 52.2389 4.82021C52.2389 4.88831 52.2389 4.97912 52.2389 5.04723C52.2389 5.11534 52.2389 5.20615 52.2389 5.29696C52.4206 4.86561 52.693 4.50237 53.1016 4.22994C53.4876 3.9575 53.9416 3.79858 54.4638 3.79858C54.6 3.79858 54.7135 3.79858 54.827 3.82129V4.63858C54.6681 4.61588 54.5319 4.61588 54.4184 4.61588C53.987 4.61588 53.6011 4.70669 53.2833 4.91102C52.9654 5.11534 52.7157 5.38777 52.5341 5.75102C52.3524 6.11426 52.2616 6.54561 52.2616 7.02237V10.5413H51.3989V10.5186Z" fill="#FAFAFA"/>
<path d="M56.9157 10.3372L56.8703 10.5188H54.2141L54.2595 10.3372C54.986 10.2691 55.3038 10.042 55.4174 9.49717L56.9157 2.43662C57.0747 1.71013 56.8476 1.59662 56.0757 1.75554L56.1211 1.57392L57.7557 1.02905H57.9374L56.1438 9.51987C56.0076 10.042 56.2119 10.2691 56.9157 10.3372Z" fill="#FAFAFA"/>
<path d="M59.9351 10.3369L59.8897 10.5186H57.2108L57.2562 10.3369C57.9827 10.2688 58.3005 10.0418 58.4141 9.49694L59.3222 5.18343C59.4811 4.45694 59.2768 4.34343 58.4822 4.50235L58.5276 4.32073L60.1622 3.77586H60.3438L59.1405 9.49694C59.027 10.0418 59.2314 10.2688 59.9351 10.3369ZM60.3892 1.39209C60.7524 1.39209 60.9795 1.66452 60.9341 2.02777C60.8887 2.39101 60.5708 2.64074 60.2303 2.64074C59.867 2.64074 59.6173 2.36831 59.6627 2.02777C59.6854 1.66452 60.0032 1.39209 60.3892 1.39209Z" fill="#FAFAFA"/>
<path d="M64.5211 12.4256L65.2476 9.04291C64.7936 10.0418 63.8174 10.7229 62.8184 10.7229C61.1838 10.7229 60.4119 9.17912 60.9114 6.88615C61.2519 5.20615 62.7503 3.77588 64.5211 3.77588C65.3384 3.77588 66.0195 4.13912 66.2919 4.68399L66.9049 3.77588H67.0865L65.2249 12.4256C65.0887 13.0159 65.5655 13.1294 66.0422 13.2202L65.9968 13.4018H62.9319L62.9773 13.2202C63.8855 13.1294 64.4076 13.0159 64.5211 12.4256ZM63.2725 10.2461C64.1125 10.2461 64.9525 9.51966 65.3611 8.65696L65.906 6.06887C66.0422 5.13806 65.6109 4.16182 64.3168 4.16182C63.0909 4.16182 62.0465 5.27426 61.706 6.88615C61.2973 8.86131 61.8876 10.2461 63.2725 10.2461Z" fill="#FAFAFA"/>
<path d="M76.2357 10.3369L76.1903 10.5186H73.5114L73.5568 10.3369C74.2832 10.2688 74.6011 10.0418 74.7146 9.49694L75.6227 5.18343C75.7816 4.45694 75.5773 4.34343 74.7827 4.50235L74.8281 4.32073L76.4627 3.77586H76.6443L75.4411 9.49694C75.3276 10.0418 75.5319 10.2688 76.2357 10.3369ZM76.6897 1.39209C77.053 1.39209 77.28 1.66452 77.2346 2.02777C77.1892 2.39101 76.8714 2.64074 76.5308 2.64074C76.1676 2.64074 75.9178 2.36831 75.9632 2.02777C76.0087 1.66452 76.3265 1.39209 76.6897 1.39209Z" fill="#FAFAFA"/>
<path d="M72.4443 9.47428L73.0573 6.59101L73.6476 3.77588H73.4659L71.8313 4.32074L71.7859 4.50237C72.5578 4.34345 72.7622 4.45696 72.6259 5.18345L71.8541 8.86128C70.9913 9.65588 70.4011 10.1326 69.6519 10.1326C68.7438 10.1326 68.267 9.51969 68.4941 8.45266L69.493 3.77588H69.3113L67.6768 4.32074L67.6313 4.50237C68.4032 4.34345 68.6303 4.45696 68.4714 5.18345L67.7676 8.54345C67.4951 9.7921 68.1308 10.7002 69.2886 10.7002C70.0605 10.7002 70.7416 10.2689 71.8086 9.13374L71.7632 9.36077L71.5362 10.4732H73.2389L73.2843 10.2689C72.5351 10.2462 72.3308 10.0418 72.4443 9.47428Z" fill="#FAFAFA"/>
<path d="M83.3643 3.52636L83.8865 1.00635H83.7049L82.0703 1.55121L82.0249 1.73283C82.7968 1.57392 83.0011 1.68743 82.8649 2.41392L82.4108 4.57068C82.1157 4.09392 81.48 3.77609 80.7535 3.77609C78.96 3.77609 77.4843 5.20636 77.0984 6.99987C76.6443 9.17933 77.3935 10.7231 79.0281 10.7231C80.0497 10.7231 81.0259 10.0193 81.48 9.02041L81.3665 9.58798L81.1622 10.5188L82.8649 10.4961L82.9103 10.3145C82.2065 10.2464 82.0022 10.0193 82.1157 9.47447L83.3643 3.52636ZM81.5481 8.63447C81.1622 9.51987 80.2995 10.2464 79.4595 10.2464C78.0746 10.2464 77.4843 8.86149 77.8703 6.99987C78.2335 5.25176 79.3005 4.16203 80.5265 4.16203C81.8432 4.16203 82.2746 5.20636 82.093 6.13717L82.0249 6.4323L81.5481 8.63447Z" fill="#FAFAFA"/>
</g>
<defs>
<clipPath id="clip0_9_5383">
<rect width="84" height="12.9405" fill="white" transform="translate(0 0.529785)"/>
</clipPath>
</defs>
</svg>
