<svg width="127" height="24" viewBox="0 0 127 24" fill="none" xmlns="http://www.w3.org/2000/svg">
<path d="M24.0463 7.44939C22.6074 6.9911 20.6378 7.26658 19.1385 7.19549C17.2017 7.19549 14.8576 7.19549 12.9181 7.19549C13.6737 6.03771 14.6868 4.48511 15.4423 3.32606C17.6584 0.0617053 21.9189 1.93722 21.6338 5.05892C21.5917 5.52102 21.9702 5.91964 22.4498 5.92726C22.4655 5.92726 22.4813 5.92726 22.4958 5.92726C22.9241 5.93488 23.2973 5.62893 23.3406 5.21761C23.6744 0.282159 16.6353 -1.96468 14.1152 2.26349C13.8195 2.71416 12.9536 4.04586 12.6448 4.51685C11.4885 6.29034 10.1496 8.34312 8.99195 10.1153L8.79831 10.3822C8.30425 9.62682 7.12215 7.96481 6.61889 7.19549C3.99355 3.4737 8.33758 -0.146024 11.2113 2.53897C11.5884 2.89062 12.2086 2.80556 12.4885 2.37774L12.5187 2.33077C12.7263 2.01212 12.6842 1.59319 12.4044 1.33167C8.03768 -2.39873 1.74107 2.37774 4.74121 7.4113C5.18139 8.08541 6.06702 9.44504 6.50589 10.1153C7.55576 11.7276 8.77251 13.5887 9.82238 15.1997C8.63586 15.1997 6.87775 15.1997 5.67676 15.1997C1.60629 15.1997 0.113358 10.8453 3.31816 9.23431C3.74521 9.01976 3.88975 8.49673 3.63746 8.09937C3.62826 8.08414 3.61907 8.06891 3.60855 8.05367C3.38255 7.69313 2.90689 7.55857 2.51795 7.75026C-1.68848 9.82347 -0.434574 16.8627 4.86472 16.85C7.94996 16.85 11.3059 16.85 14.3924 16.85C13.6382 18.0091 12.6251 19.5592 11.8696 20.7182C9.76077 23.9533 5.39163 22.1134 5.67808 18.9866C5.72013 18.5245 5.3417 18.1259 4.86209 18.1195C4.85553 18.1195 4.84895 18.1195 4.84238 18.1195C4.4022 18.1132 4.0264 18.4356 3.99355 18.8597C3.99355 24.0782 10.6187 26.1719 13.6566 21.0749C15.2413 18.6438 16.9678 15.9995 18.5525 13.5696C19.1569 14.4926 20.0807 15.9157 20.693 16.85C23.1219 20.5564 18.973 24.1916 16.1006 21.5053C15.7248 21.1536 15.1033 21.2387 14.8234 21.6665L14.8129 21.683C14.5935 22.0194 14.6605 22.46 14.9706 22.7227C19.9252 26.4017 25.4683 21.0749 21.6351 15.1997C20.2975 13.1494 18.8271 10.8935 17.4895 8.84584C18.676 8.84584 20.4341 8.84584 21.6351 8.84584C25.9613 8.84584 27.1985 13.199 23.9937 14.8112C23.5667 15.0258 23.4234 15.5488 23.6744 15.9462C23.6862 15.9639 23.6981 15.983 23.7086 16.0007C23.9319 16.3575 24.4023 16.4959 24.7887 16.3092C28.4823 14.5218 28.2339 8.6935 24.0463 7.44939ZM11.323 12.0221C11.951 11.0586 13.0338 9.3968 13.6566 8.44595C14.2728 9.39299 15.3648 11.0637 15.9889 12.0221C15.3608 12.9857 14.2768 14.6475 13.6566 15.5983C12.8758 14.408 12.1008 13.2142 11.323 12.0221Z" fill="#2133FF"/>
<path d="M41.636 20.3756C40.9689 20.3756 40.4182 20.1682 39.9839 19.7534C39.5495 19.3227 39.3324 18.6686 39.3324 17.7911V6.20887H36.0282V20.3756H33.5385V6.18494H36.0049V3.62439H39.3556V6.18494H41.8221V17.7672H44.5911V6.20887H47.0808V3.62439H50.5013V6.20887H52.9678V20.3756H50.5013V6.20887H47.0808V17.7911C47.0808 18.541 46.8947 19.1632 46.5224 19.6577C46.1501 20.1363 45.5684 20.3756 44.7772 20.3756H41.636Z" fill="#2133FF"/>
<path d="M66.2095 10.6599V13.2444H58.2516V17.7911H66.7214V20.3756H60.5552C59.8727 20.3756 59.3142 20.1682 58.8799 19.7534C58.4611 19.3227 58.2516 18.6686 58.2516 17.7911C57.3985 17.7911 56.7702 17.5678 56.3669 17.1211C55.9636 16.6744 55.7619 16.0921 55.7619 15.3742V8.62583C55.7619 7.8122 55.9946 7.21394 56.4599 6.83105C56.9408 6.43222 57.5381 6.2328 58.2516 6.2328C58.2516 5.3394 58.4611 4.6853 58.8799 4.27051C59.3142 3.83976 59.8727 3.62439 60.5552 3.62439H66.7214V6.2328H58.2516V10.6599H66.2095Z" fill="#2133FF"/>
<path d="M76.9555 3.62439C77.638 3.62439 78.1887 3.83976 78.6076 4.27051C79.0419 4.6853 79.2591 5.33142 79.2591 6.20887C79.9727 6.20887 80.5621 6.40829 81.0275 6.80712C81.5084 7.20596 81.7488 7.8122 81.7488 8.62583V15.3742C81.7488 16.0761 81.5394 16.6584 81.1206 17.1211C80.7173 17.5678 80.0968 17.7911 79.2591 17.7911C79.2591 18.6686 79.0419 19.3227 78.6076 19.7534C78.1887 20.1682 77.638 20.3756 76.9555 20.3756H69.5095V3.62439H76.9555ZM79.2591 6.2328H71.9993V17.7911H79.2591V6.2328Z" fill="#2133FF"/>
<path d="M94.0693 20.3756H87.0421C86.3285 20.3756 85.7313 20.1682 85.2504 19.7534C84.785 19.3386 84.5524 18.7244 84.5524 17.9108V3.62439H87.0421V17.7911H94.0693V3.62439H96.559V17.9108C96.559 18.7244 96.3186 19.3386 95.8377 19.7534C95.3723 20.1682 94.7828 20.3756 94.0693 20.3756Z" fill="#2133FF"/>
<path d="M108.955 13.1965H101.812V10.612H99.3453V6.2328C99.3453 5.48298 99.5392 4.86079 99.927 4.36623C100.315 3.87167 100.904 3.62439 101.695 3.62439H111.073V6.2328H101.835V10.5881H108.955C109.669 10.5881 110.258 10.7875 110.724 11.1864C111.205 11.5693 111.445 12.1755 111.445 13.0051V17.9587C111.445 18.6766 111.236 19.2589 110.817 19.7056C110.413 20.1523 109.793 20.3756 108.955 20.3756H99.4151V17.7911H108.955V13.1965Z" fill="#2133FF"/>
<path d="M123.909 3.62439V6.20887H126.399V20.3756H123.909V14.5606H116.719V20.3756H114.229V6.20887H116.719V3.62439H123.909ZM116.719 11.9761H123.909V6.2328H116.719V11.9761Z" fill="#2133FF"/>
</svg>
