<svg width="12" height="13" viewBox="0 0 12 13" fill="none" xmlns="http://www.w3.org/2000/svg">
<path d="M9 7.25C9.82718 7.25012 10.4999 7.92282 10.5 8.75C10.5 9.57683 9.82725 10.2499 9 10.25C8.1731 10.25 7.5 9.5769 7.5 8.75C7.50012 7.92275 8.17317 7.25 9 7.25ZM6 8.25C6.27614 8.25 6.5 8.47386 6.5 8.75C6.5 9.02614 6.27614 9.25 6 9.25H2C1.72386 9.25 1.5 9.02614 1.5 8.75C1.5 8.47386 1.72386 8.25 2 8.25H6ZM3 2.75C3.82702 2.75 4.5 3.4231 4.5 4.25C4.49988 5.07725 3.82695 5.75 3 5.75C2.17305 5.75 1.50012 5.07725 1.5 4.25C1.5 3.4231 2.17298 2.75 3 2.75ZM10 3.75C10.2761 3.75 10.5 3.97386 10.5 4.25C10.5 4.52614 10.2761 4.75 10 4.75H6C5.72386 4.75 5.5 4.52614 5.5 4.25C5.5 3.97386 5.72386 3.75 6 3.75H10Z" fill="#919093"/>
</svg>
