<svg width="19" height="16" viewBox="0 0 19 16" fill="none" xmlns="http://www.w3.org/2000/svg">
<g clip-path="url(#clip0_24_1993)">
<path d="M8.5 16C12.9183 16 16.5 12.4183 16.5 8C16.5 3.58172 12.9183 0 8.5 0C4.08172 0 0.5 3.58172 0.5 8C0.5 12.4183 4.08172 16 8.5 16Z" fill="#2775C9"/>
<path fill-rule="evenodd" clip-rule="evenodd" d="M8.02 5.02972V4.53012C8.02 4.26502 8.23493 4.05012 8.5 4.05012C8.76506 4.05012 8.98 4.26502 8.98 4.53012V5.02799C9.8486 5.15877 10.4441 5.6526 10.6031 6.35623C10.6375 6.50883 10.5417 6.66049 10.3891 6.69493C10.3687 6.6996 10.3477 6.70193 10.3267 6.70193H10.0671C9.85693 6.70193 9.66573 6.58057 9.57626 6.39043C9.41066 6.0384 9.01813 5.83569 8.4954 5.83569C7.84166 5.83569 7.40053 6.15653 7.40053 6.63777C7.40053 7.0228 7.69333 7.24733 8.40313 7.4158L9.06886 7.5682C10.2439 7.83687 10.7412 8.32213 10.7412 9.1844C10.7412 10.1399 10.0742 10.7861 8.98 10.9384V11.5168C8.98 11.7819 8.76506 11.9968 8.5 11.9968C8.23493 11.9968 8.02 11.7819 8.02 11.5168V10.9475C7.0508 10.8305 6.39622 10.3175 6.24246 9.5326C6.21716 9.40347 6.30134 9.27827 6.43048 9.253C6.44556 9.25 6.46091 9.24853 6.47629 9.24853L6.87049 9.2486C7.04891 9.2486 7.2114 9.35127 7.288 9.5124C7.46953 9.89407 7.93393 10.1309 8.51546 10.1309C9.21326 10.1309 9.69853 9.78593 9.69853 9.30473C9.69853 8.8876 9.40173 8.647 8.67186 8.47453L7.92193 8.29807C6.85513 8.05347 6.34982 7.54013 6.34982 6.714C6.34982 5.82432 7.02137 5.18462 8.02 5.02972ZM2.5 8.00027C2.5 5.35269 4.22815 3.10721 6.62209 2.32204C6.77328 2.27246 6.93605 2.35482 6.98563 2.50602C6.99514 2.535 6.99998 2.5653 6.99998 2.5958L6.99999 2.7649C6.99999 3.02268 6.84363 3.25468 6.6047 3.35144C4.76288 4.09728 3.46429 5.8977 3.46429 8.00027C3.46429 10.1018 4.76163 11.9015 6.60204 12.6479C6.8426 12.7455 6.99999 12.9792 6.99999 13.2388L6.99999 13.3798C6.99999 13.5489 6.86297 13.6859 6.69392 13.6859C6.66108 13.6859 6.62844 13.6806 6.59727 13.6703C4.21621 12.8777 2.5 10.6386 2.5 8.00027ZM14.5 8.00027C14.5 10.6324 12.7919 12.8671 10.4196 13.6646C10.253 13.7206 10.0726 13.6309 10.0166 13.4643C10.0056 13.4317 10 13.3974 10 13.3629V13.2499C10 12.9841 10.1609 12.7447 10.4071 12.6443C12.2427 11.8955 13.5357 10.0983 13.5357 8.00027C13.5357 5.90415 12.2451 4.10835 10.4123 3.35834C10.1629 3.2563 10 3.01363 10 2.74421V2.64119C10 2.46399 10.1437 2.32034 10.3209 2.32034C10.3557 2.32034 10.3903 2.32602 10.4233 2.33713C12.7937 3.13565 14.5 5.36945 14.5 8.00027Z" fill="white"/>
<g filter="url(#filter0_dd_24_1993)">
<path d="M7.21436 12.6428C7.21436 10.1575 9.22907 8.14282 11.7144 8.14282H13.7144C16.1996 8.14282 18.2144 10.1575 18.2144 12.6428C18.2144 15.1281 16.1996 17.1428 13.7144 17.1428H11.7144C9.22907 17.1428 7.21436 15.1281 7.21436 12.6428Z" fill="#1F1E23" shape-rendering="crispEdges"/>
<path d="M16.2144 12.6103C16.2144 14.8394 14.7993 15.5548 14.049 14.9223C13.4379 14.404 13.2557 13.305 12.3338 13.1909C11.1654 13.0561 11.0582 14.5595 10.2863 14.5595C9.38587 14.5595 9.21436 13.305 9.21436 12.6518C9.21436 11.9883 9.40731 11.0862 10.1684 11.0862C11.0582 11.0862 11.1118 12.3822 12.2266 12.3097C13.3307 12.2371 13.3522 10.8893 14.0811 10.319C14.7136 9.81101 16.2144 10.3501 16.2144 12.6103Z" fill="#65FB9E"/>
</g>
</g>
<defs>
<filter id="filter0_dd_24_1993" x="6.35721" y="8.14282" width="12.7143" height="11.5714" filterUnits="userSpaceOnUse" color-interpolation-filters="sRGB">
<feFlood flood-opacity="0" result="BackgroundImageFix"/>
<feColorMatrix in="SourceAlpha" type="matrix" values="0 0 0 0 0 0 0 0 0 0 0 0 0 0 0 0 0 0 127 0" result="hardAlpha"/>
<feMorphology radius="0.857143" operator="erode" in="SourceAlpha" result="effect1_dropShadow_24_1993"/>
<feOffset dy="1.71429"/>
<feGaussianBlur stdDeviation="0.857143"/>
<feComposite in2="hardAlpha" operator="out"/>
<feColorMatrix type="matrix" values="0 0 0 0 0 0 0 0 0 0 0 0 0 0 0 0 0 0 0.03 0"/>
<feBlend mode="normal" in2="BackgroundImageFix" result="effect1_dropShadow_24_1993"/>
<feColorMatrix in="SourceAlpha" type="matrix" values="0 0 0 0 0 0 0 0 0 0 0 0 0 0 0 0 0 0 127 0" result="hardAlpha"/>
<feMorphology radius="0.285714" operator="erode" in="SourceAlpha" result="effect2_dropShadow_24_1993"/>
<feOffset dy="0.571429"/>
<feGaussianBlur stdDeviation="0.285714"/>
<feComposite in2="hardAlpha" operator="out"/>
<feColorMatrix type="matrix" values="0 0 0 0 0 0 0 0 0 0 0 0 0 0 0 0 0 0 0.03 0"/>
<feBlend mode="normal" in2="effect1_dropShadow_24_1993" result="effect2_dropShadow_24_1993"/>
<feBlend mode="normal" in="SourceGraphic" in2="effect2_dropShadow_24_1993" result="shape"/>
</filter>
<clipPath id="clip0_24_1993">
<rect width="18" height="16" fill="white" transform="translate(0.5)"/>
</clipPath>
</defs>
</svg>
